<svg width="262" height="305" viewBox="0 0 262 305" fill="none" xmlns="http://www.w3.org/2000/svg">
<path d="M186.068 22.6334C205.894 15.5678 234.268 6.42121 245.633 30.9701C251.041 42.6588 250.742 53.0142 244.636 64.3416C277.621 79.4572 258.892 123.994 227.726 124.193C223.215 124.218 215.937 120.891 213.507 124.405L195.924 181.59C228.773 172.793 217.084 218.389 197.482 225.517C194.666 226.539 186.691 226.676 186.105 229.043L187.351 238.165C191.177 239.062 195.825 239.997 199.314 241.779C207.551 245.991 227.601 275.163 232.735 284.372C252.885 320.572 254.555 340.012 255.776 380.96C256.2 395.215 259.901 412.848 252.025 425.845C256.3 426.83 254.206 431.004 253.197 434.481C251.103 441.646 244.287 452.737 235.514 451.167C233.309 450.768 230.841 448.089 228.972 448.089C225.196 448.089 216.037 456.55 209.669 451.366C208.909 460.077 204.161 467.529 202.492 475.99C194.616 515.879 190.441 558.148 174.142 595.93C171.911 601.089 165.731 603.37 160.36 603.457C155.936 603.532 153.332 600.329 149.518 601.102C143.948 602.211 139.175 609.488 129.281 609.75C112.022 610.211 103.636 594.709 113.169 581.077C124.309 565.138 136.633 583.083 149.93 575.182C144.197 547.506 137.269 517.337 125.144 491.666C123.536 488.264 121.867 483.467 118.701 481.298C110.602 518.234 98.377 554.148 85.6041 589.65C83.4109 592.99 78.0774 596.516 74.1147 596.952C69.6161 597.451 66.8746 594.46 63.3107 594.709C55.946 595.22 53.8152 603.208 37.3662 600.616C22.0262 598.198 15.7582 587.021 24.693 573.587C33.6278 560.154 47.5222 569.836 60.1206 570.995C50.3758 535.605 42.6373 499.193 38.9363 462.594C29.9517 463.977 26.7491 459.566 25.2163 451.366C20.319 453.983 16.9669 452.662 14.1756 448.089C13.079 446.295 13.079 443.304 12.6553 442.731C12.4559 442.456 9.8141 444.4 6.51184 440.812C-7.81872 425.198 5.88877 397.508 6.462 380.785C7.75798 342.554 31.2601 280.048 56.4196 250.165C58.6626 247.511 60.943 245.542 63.9462 243.835C58.7623 235.772 55.1111 230.115 51.9709 220.906C51.1733 218.588 47.6343 209.604 47.5845 208.956C47.3851 206.663 49.8026 204.569 50.2263 201.603C52.5815 185.142 48.1078 176.332 55.4476 158.225C61.5536 143.172 74.5633 134.661 83.5729 121.552C87.5356 115.795 98.3894 98.5605 99.5234 92.5167C100.77 85.8997 92.1214 84.3047 88.2459 79.9557C73.4044 63.2824 91.8721 31.0573 113.655 32.615C116.259 -7.13673 171.6 -10.6509 186.08 22.621L186.068 22.6334ZM183.476 33.9359C181.482 5.97261 136.633 -4.85632 122.963 21.3873C117.941 31.0199 122.49 33.263 123.661 42.6464C118.215 45.0888 115.075 37.9609 112.097 37.9359C91.436 37.8113 80.2332 70.2607 101.866 80.0304C104.234 75.4571 102.664 67.3697 109.954 67.5816C107.985 94.6601 97.3676 116.667 78.8002 136.094C99.2991 128.119 124.957 131.695 145.506 138.561C166.229 145.49 179.475 160.344 192.186 177.229C196.996 151.496 203.09 122.424 218.99 101.24C226.118 104.106 216.411 114.536 217.694 116.193C238.019 126.686 268.163 97.09 252.549 77.6254C244.075 67.0706 235.776 71.1704 224.199 71.3448C216.984 61.5128 234.841 65.2762 238.306 63.1951C241.558 61.2512 244.636 50.8335 244.636 46.9954C244.636 37.4001 236.573 23.0945 226.392 21.5244C219.539 20.4651 193.881 23.0322 189.669 28.2535C187.638 30.7832 188.684 35.0325 183.488 33.9109L183.476 33.9359ZM55.1236 182.837C54.4133 188.432 55.6345 195.161 55.1236 200.906L68.7688 193.329C60.0334 178.724 75.3982 166.388 83.1492 182.201L91.2366 166.014C94.7507 187.921 72.1333 198.451 56.3573 207.149C55.8214 207.934 71.2112 216.856 72.1458 216.943C73.1552 217.043 85.9904 207.959 91.2366 212.744C79.6475 219.722 68.5196 224.096 56.9679 214.626C56.0956 214.351 56.1579 215.597 56.3822 216.457C57.9897 222.838 66.75 238.065 72.1458 241.829C79.4357 246.925 104.234 254.776 113.206 255.586C142.403 258.253 163.874 238.489 184.173 220.906L187.563 223.211C201.607 219.311 213.545 205.641 210.579 190.55C209.121 183.136 195.077 186.45 192.336 190.45C191.563 191.584 181.395 215.946 179.662 200.345C175.064 158.811 151.313 139.384 109.306 137.365C99.9471 136.917 76.1957 140.119 69.1925 146.449C66.5133 148.867 62.1518 159.696 60.7686 163.571C59.2483 167.821 55.5971 178.924 55.1111 182.837H55.1236ZM182.217 233.318L163.425 247.536C155.338 250.714 144.696 258.938 136.446 260.434C131.1 261.405 125.107 260.085 119.923 262.589L129.954 276.87C132.396 278.552 142.154 268.483 144.958 266.44C153.07 260.533 175.214 247.461 180.46 240.882C182.528 238.302 182.504 236.445 182.217 233.305V233.318ZM250.555 426.269C249.895 408.35 252.163 388.773 250.742 371.04C247.951 336.149 241.234 307.338 221.645 278.016C216.511 270.34 199.962 247.71 191.987 245.38C179.525 241.729 178.366 250.95 171.625 256.994C163.625 264.172 154.266 270.415 145.095 275.948L144.746 277.518C146.067 297.145 150.303 317.382 154.154 336.784C159.463 363.551 166.565 389.732 172.41 416.337L177.033 416.288C181.781 413.409 191.8 362.779 192.161 354.816C192.871 339.139 184.597 338.965 179.737 327.388C179.426 326.653 179.5 325.295 180.335 325.544L187.189 330.516L180.983 304.347C184.248 307.55 188.659 313.93 190.317 318.055C200.124 342.292 198.367 365.458 193.033 390.567C190.815 401.047 187.725 404.973 184.622 413.309C181.519 421.646 179.189 430.581 175.974 438.93C180.958 438.93 185.258 441.111 190.255 441.472C196.336 441.908 210.193 440.924 216.361 440.076C226.38 438.706 240.337 429.148 250.53 426.282L250.555 426.269ZM94.9999 257.007L70.0897 249.517C68.9557 250.664 78.9123 265.692 77.5665 269.443L94.9999 256.994V257.007ZM66.3264 252.01C60.5941 253.804 55.9834 259.212 52.8432 264.06C30.4127 298.777 15.7706 345.594 9.34057 386.293C8.74243 390.106 6.462 400.823 6.624 403.502C6.81092 406.655 11.1225 407.552 11.5587 410.954C12.0322 414.605 8.82965 416.101 9.88887 418.568C13.4777 426.917 28.6806 438.17 35.1605 445.148L32.6807 425.833C35.3973 419.216 32.4564 413.696 32.6682 407.191C33.3038 387.327 46.5377 362.741 48.7309 342.192C49.84 331.874 49.192 319.849 50.139 309.319L55.0987 321.768L60.7187 268.197C63.1736 270.876 63.6098 275.287 63.8839 278.739C66.264 309.207 58.6875 336.473 50.7497 365.383C48.2449 374.517 45.1171 383.552 41.7276 392.399C47.2729 403.689 51.5223 416.188 61.3418 424.599C81.6164 441.983 105.355 440.836 130.153 436.051C135.886 434.942 167.176 427.117 168.397 423.116C157.406 376.175 144.06 329.021 139.848 280.646C132.222 287.599 128.82 283.126 123.026 276.92C118.365 271.923 112.172 261.094 104.346 260.595C95.2492 260.01 87.1244 273.717 80.6818 278.166C79.6351 278.889 79.4482 279.898 77.5665 279.387C74.6879 269.804 66.0896 262.652 66.3264 251.985V252.01ZM9.02904 437.671L13.7644 434.568L5.29063 423.964L9.02904 437.671ZM236.137 437.995C234.742 439.428 233.944 443.466 235.128 445.21C239.302 451.391 250.891 434.942 249.508 430.207C246.767 432.612 238.056 436.026 236.137 437.995ZM28.9547 448.899C30.4501 452.463 31.2227 456.426 34.5624 458.831C41.3164 454.494 34.0016 450.457 28.9547 448.899Z" fill="#937EA4"/>
<path d="M119.923 306.84C118.652 310.503 118.889 313.93 121.817 316.784C126.278 319.151 120.247 306.603 121.182 305.581C131.649 308.322 131.101 325.644 118.34 322.765C110.166 320.921 107.86 304.036 119.923 306.827V306.84Z" fill="#937EA4"/>
<path d="M153.556 72.5661C148.783 90.3111 139.537 109.028 122.415 117.415C121.754 111.371 127.624 108.903 130.415 104.866C136.309 96.3673 141.406 84.9901 147.537 77.127C149.045 75.1954 150.627 72.2795 153.543 72.5537L153.556 72.5661Z" fill="#937EA4"/>
<path d="M189.694 83.7814C187.986 90.3485 182.242 94.2364 180.011 100.878C177.369 108.766 178.528 120.816 175.039 127.035C174.254 128.443 175.114 129.166 172.26 128.63C171.836 112.866 172.385 90.1865 189.694 83.7814Z" fill="#937EA4"/>
<path d="M129.555 177.478C146.428 173.752 144.484 199.373 128.583 194.127C121.555 191.809 121.817 179.185 129.555 177.478Z" fill="#937EA4"/>
<path d="M138.602 229.567C130.976 225.467 131.823 231.872 128.035 235.81C120.296 243.835 99.598 242.85 93.7661 232.682C103.324 233.243 107.698 239.561 118.477 236.221C123.412 234.701 131.362 227.037 126.153 222.102C132.259 221.305 138.689 222.339 138.602 229.567Z" fill="#937EA4"/>
<path d="M144.845 152.319C145.219 155.584 144.77 154.275 143.026 154.824C135.761 157.116 129.667 154.437 122.415 153.54C124.496 145.266 138.677 152.244 144.845 152.319Z" fill="#937EA4"/>
<path d="M90.003 149.827C90.5762 153.029 89.4921 152.057 87.5107 152.867C83.2614 154.612 78.3765 155.048 73.8032 154.799V151.073L90.003 149.827Z" fill="#937EA4"/>
</svg>
