<svg width="258" height="48" viewBox="0 0 258 48" fill="none" xmlns="http://www.w3.org/2000/svg">
<g clip-path="url(#clip0_2063_1459)">
<path d="M42.7292 0V12.169C47.5694 8.79549 56.4172 7.69352 59.565 13.947C60.7903 16.3741 59.4837 19.0513 61.6771 20.2817C62.7737 5.76 85.0996 4.38085 89.2493 18.1048C94.6446 35.9392 77.6599 47.2631 64.1006 35.1076L61.0069 28.3944V37.8592H50.1757V19.2676C50.1757 17.0028 42.7292 17.0028 42.7292 19.2676V37.8592H31.8979V0H42.7292ZM73.0093 19.0918C69.4688 19.68 67.3093 21.4513 67.79 25.2845C68.5211 31.1054 83.6983 31.6665 83.3869 24.0135C83.1838 19.0039 76.8273 18.4563 73.0093 19.0918Z" fill="black"/>
<path d="M100.947 35.831V48H90.793V10.1408L99.5663 10.1679L100.609 13.5076C105.591 6.98365 116.192 8.38985 119.252 15.8603C124.708 29.2056 115.915 45.4242 100.947 35.831ZM104.826 17.0231C98.957 18.2129 99.4444 32.1262 106.661 31.1189C111.792 30.4022 112.151 15.5425 104.826 17.0231Z" fill="black"/>
<path d="M213.321 18.9296C211.812 6.38198 240.311 6.97691 241.713 15.9279C242.45 20.6603 240.819 26.2648 242.498 31.0242L245.822 31.0918L245.483 37.1899C243.98 39.7318 233.569 38.9408 232.601 35.1347C225.08 41.4761 208.278 39.387 213.274 26.6569C215.413 21.1944 226.576 20.7752 231.599 20.9578C231.619 18.7403 231.558 16.8135 229.087 16.3808C224.003 15.4885 223.489 18.9363 223.137 18.9363H213.321V18.9296ZM231.599 25.6901C228.451 24.4192 218.98 28.7594 224.322 31.2676C228.14 33.0592 232.682 30.1386 231.599 25.6901Z" fill="black"/>
<path d="M158.326 9.64056C171.865 7.65971 181.809 17.422 176.224 30.8958C171.892 41.3273 151.319 41.2327 147.339 30.409C143.859 20.9375 147.846 11.182 158.326 9.64732V9.64056ZM160.329 16.3606C153.871 17.7735 155.895 36.7977 164.851 31.031C168.737 28.5296 168.886 14.4879 160.329 16.3606Z" fill="black"/>
<path d="M210.613 20.9578H200.459C199.992 20.9578 199.491 14.5555 193.5 16.3538C188.023 17.9966 188.382 35.5065 198.259 31.2541C200.953 30.0913 199.938 28.2254 200.784 27.022C201.359 26.2107 210.789 24.8992 210.485 28.5363C209.517 40.178 188.416 41.6856 182.283 33.3566C177.287 26.5758 178.918 14.8056 186.886 11.1144C195.429 7.15945 210.369 9.51888 210.613 20.951V20.9578Z" fill="black"/>
<path d="M31.221 20.9577H20.3898C20.8907 17.4625 17.8986 15.84 14.6966 16.2456C7.9203 17.0975 8.68526 36.027 18.8734 31.2744C21.2292 30.1791 20.6199 26.9882 22.1701 26.4608C23.8625 26.5217 30.7404 25.6158 31.0518 27.3532C30.4763 39.6034 12.8553 41.3138 4.86048 35.4524C-0.331741 31.6394 -0.981615 23.2766 1.11017 17.5977C5.48328 5.71266 30.605 6.36844 31.2142 20.9577H31.221Z" fill="black"/>
<path d="M142.918 0H132.087V37.8592H142.918V0Z" fill="black"/>
<path d="M258 0H247.846V37.8592H258V0Z" fill="black"/>
</g>
<defs>
<clipPath id="clip0_2063_1459">
<rect width="258" height="48" fill="white"/>
</clipPath>
</defs>
</svg>
