<?xml version="1.0" encoding="UTF-8"?>
<svg id="Layer_2" data-name="Layer 2" xmlns="http://www.w3.org/2000/svg" viewBox="0 0 777.92 576.7">
  <g id="Layer_1-2" data-name="Layer 1">
    <g>
      <path d="M438.94,54.28c.47.33,2.26-.95,3.31-.77,1.46.25,18.86,18.15,21.13,20.75,4.05,4.65,25.49,33.72,26.29,37.74.57,2.85-3.05,2.67,2.25,3.87,2.92,9.3,10.03,18.88,12.94,27.82s3.4,19.18,6.09,28.39c7,.53,14.24-.25,21.2.29,7.69.6,27.17,2.16,33.93,3.85,5.36,1.33,14.72,3.43,21.48,5.66,50.71,16.73,77.25,51.9,100.28,96.56,27.81,53.94,26.42,122.16,4.21,177.48-14.3,35.63-32.11,56.39-62.86,80.07-54.9,42.27-132.3,50.99-197.11,28.27-69.12-24.23-121.3-60.74-144.61-133.14-.35-1.09-3.55-7.82-4.1-8.16-11.69-2.26-23.45-1.93-35.15-4.56-54.65-12.32-116.06-54.22-142.38-104.41-26.06-49.7-27.88-123.53-9.39-176.04,16.97-48.22,43.48-87.68,92.27-108.57,16.07-6.88,32.19-16.62,50.08-21.66,2.99-.84,22.23-4.79,23.63-4.45,1.04.26.28,2.32,1.14,2.04,1.75-.65.37-2.93.51-2.99.67-.28,2.17.95,3.33.7,41.94-8.95,89.34,3.2,128.54,19.78,12.54,5.3,27.99,15.29,37.46,23.49,2.45,2.12,5.07,4.58,5.56,7.98ZM478.53,306.82c3.87-5.24,8.82-19.84,11.03-26.45,22.77-68.15,21.65-128.71-20.89-188.42-40.47-56.82-84.87-71.46-151.46-82.34C233.95-3.99,148.84,42.87,113.02,118.57c-50.1,105.89-10.32,232.05,100.9,275.18,6.29,2.44,19.85,5.18,24.74,7.69,1.28.66,1.11,2.58,2.01,2.65,3.13.27,3.45.12,7.12.76,14.92,2.62,28.31,4.06,43.46,5.52,4.49.43,2.66.73,4.28,3.69l.97-2.87c2.72.98,5.22-1.35,5.54,2.87h.96c.85-5.45,8.53-2.58,12.46-2.98,77.44-7.82,119.44-45.21,163.07-104.25ZM669.67,256.17c-.13-.12-2.02.15-3.47-1.03-2.83-2.3-8.73-12.24-12.02-15.98-14.38-16.36-35.07-33.56-54.58-43.34-27.06-13.57-58.81-18.12-88.79-19.6,1.78,11.96,3.4,23.29,2.99,35.46-.12,3.55-2.27,7.7-.5,11.51,2.88,3.48,6.04.9,8.93,1.04,15.08.76,37.07,8.17,51.51,14.44,83.8,36.41,94.98,158.73,37.48,223.36-23.1,25.96-79.84,53.08-114.74,45.97-.74-.15-.52-1.73-1.13-1.81-1.76-.25-5.99,1.09-8.27.15-1.65-.68-1.16-2.27-1.27-2.34-.41-.25-1.77,1.95-4.19,1.83-5.01-.25-22.54-5.28-27.94-7.15-32.69-11.35-66.79-39.01-84.09-68.78-2.92-5.03-5.65-10.36-7.71-15.81-22.19,5.82-44.81,9.39-67.86,8.98,6.88,25.75,22.44,49.46,40.44,68.96,9.73,10.55,25.41,24.9,37.14,32.8,3.37,2.27,8.46,4.8,12.34,6.17l-1.01,2.98c.39.36,2.29-.88,3.35-.72,2.1.32,14.14,7.08,17.45,8.41,98.3,39.69,187.7,31.1,257.44-53.64,3.12-3.79,10.01-15.51,12.46-17.52,2.67-2.19,1.35,1.89,3.01,1.51.1-6.72,3.4-12.47,6.16-18.33,9.73-20.66,15.69-52.43,16.82-76.11,1.77-37.23-7.47-75.55-24.45-108.44-1.12-2.17-6.25-9.12-6.38-9.68-.28-1.24,1.01-3.17.88-3.28ZM598.14,262.74c-9.61-9.61-16.31-12.59-27.78-18.68-17.85-9.47-36.43-19.84-57.61-16.45-2.45,17.93-6.02,35.56-12.46,52.5-11.89,31.28-31.56,65.09-56.4,87.49-22.63,20.41-49.24,36.83-78.94,44.47-1.7,1.85,21.55,37.22,24.93,40.51,25.5,24.73,71.49,46.25,107.45,49.41,25.92,2.28,58.53-12.04,80.55-25.33,11.22-6.78,14.16-11.19,23.29-19.64,5.37-4.97,6.25-7.04,10.57-13.5,14.03-20.98,22.15-42.11,25.06-67.85.53-4.7.13-12.65.91-15.9.21-.87,2.07-.29,2.06-2.1-.02-2.4-1.2-8.1-1.65-11.02-4.93-32.03-16.3-60.22-39.98-83.9Z"/>
      <path d="M14.65,162.86c-8.47-8.48-12.04-26.49-13.33-38.13C-.67,106.77-1.59,53.64,7.45,38.95c3.84-6.24,10.52-4.61,12.41,2.28,4.8,17.52-.92,42.29.4,60.57.15,2.15,1.87,14.4,3.53,14.43,2.01-1.22,1.21-2.86,1.5-4.48,4-22.39-1.32-49.87,5.27-70.68,1.76-5.54,4.49-9.82,11.16-8.78,5.19.8,7.23,17.82,7.59,22.46,1.17,14.96.68,31,.92,46.05.07,4.69,4.03,21.57-4.45,21.55-7.71-.02-8.94-18.84-9.48-24.6-1.24-13.23-1.03-27.55-2-40.97-.07-.98-.68-4.52-1.51-4.5-.13,15.6-1.16,30.97-2.49,46.49-.71,8.33,1.05,17.27-3.99,24.99-10,5.98-12.59-17.44-13.05-22.96-1.54-18.52,1.19-38.78.03-57.5-2.83-.51-1.64.68-2.25,2.19-8.9,22.1-8.29,85.69,4.08,106.4,6.9,11.56,12.29,7.91,20.65,14.33,12.65,9.72,8.76,37.93,9.48,52.51.3,6.05,1.89,13.04,2.06,18.9,1.2,42.76-6.56,117.27,9.77,155.12,5.15,11.93,12.38,18.71,15.06.72,7.31-49.07-7.98-106.6-12.87-155.81-1.45-14.61-3.96-37.89-3.07-52,.22-3.43,2.04-12.61,3.32-15.68,3.19-7.66,10.92-11.2,13.67-18.3,6.22-16.06,3.6-31.51,3.06-47.93-.2-6.24.46-12.9.03-19.02-1.04-14.8-4.15-29.27-7.23-43.74l-2.8-1.69c1.55,12.78.24,25.72.95,38.51.49,8.83,5.43,35.56,1.92,41.81-.59,1.06-1.43,2.02-2.56,2.53-6.44,1.66-8.17-18.06-8.34-22.35-.55-13.73-.65-32.34,0-46.05.22-4.79.97-20.88,5.75-22.29,8.26-2.43,10.75,11.68,12,17.6,4.95,23.44,10.16,77.85,4.81,100.2-3.13,13.08-6.45,11.89-13.55,20.43-4.12,4.95-4.61,8.5-5.01,14.97-2.16,34.43,9.01,80.8,13.02,115.98,3.1,27.25,8.15,73.97,3.23,100.04-3.22,17.06-16.37,18.23-23.95,3.64-8.05-15.5-13.57-52.89-14.27-70.67-1.65-41.75,1.16-84.61-.91-127.01-.37-7.65-.51-21.02-2.1-27.88-2.29-9.89-15.94-9.27-22.56-15.9ZM46.26,112.25c-2.57-17.6-.87-35.82-2-53.45-.17-2.69-2.22-20.43-4.49-20.48-1.82,1.2-1.41,2.64-1.54,4.43-.91,12.1,1.88,56.53,5.78,67.3.58,1.59-.54,2.68,2.25,2.19Z"/>
      <path d="M766.24,303.86c-3.55,7.88-3.74,37.75-5.77,49.64-.8,4.68-3.95,8.62-3.95,9.14,0,1.5,1.88,2.95,1.95,4.9.06,1.77-1.33,3.78-1.44,5.51-1.2,18.54-4.05,36.09-5.4,54.55-1.93,26.39-5.7,53.82-9.76,79.17-1.19,7.45-2.35,21.6-4.94,28.02-.5,1.24-2.11,1.23-2.16,1.35-.13.33,1.1,4.25.59,7.11-1.47,8.25-9,27.56-16.44,31.53-8.58,4.58-14.91.76-16.91-8.48-1.27-5.88-.38-18.07.16-24.47,3.71-44.05,17.51-87.09,25.16-130.53,1.86-10.58,6.46-35.11,5.18-44.61-1.13-8.33-7.59-8.51-12.31-14.66-3.18-4.14-4.92-8.19-5.57-13.42-4.51-35.98,13.52-110.66,26.48-145.38,3.07-8.22,9.73-27.51,19.02-28.94,19.69-3.02,18.12,24.27,17.46,37.45-1.25,24.85-6.1,51.27-8.91,76.03-.5,4.43-1.36,23.71-2.44,26.1ZM759.26,170.4c-2.76.85-10.03,18.21-11.21,21.77-10.14,30.57-19.37,73.63-24.22,105.69-1.64,10.83-4.57,30.37-1.94,40.45,3.03,11.63,11.39,13.23,14.5,21.52,5.12,13.66-.63,41.51-3.1,56.43-6.59,39.79-24.5,95.93-24.48,134.2,0,1.86.63,10.55,1,11.79,1.6,5.39,7.1,1.25,9.32-1.26,16.89-19.05,19.33-87.65,22.46-114.45,8.02-68.79,17.26-137.52,26.06-205.78,2.31-17.94,10.98-51.12-.1-67.06-2-2.87-4.74-4.41-8.3-3.31Z"/>
      <path d="M410.29,108.88c37.54,41.47,46.89,99.39,26.38,151.56-35.43,90.11-136.51,118.77-216.51,65.1-18.98-12.74-46.22-42.37-54.21-63.69-16.67-44.46-16.81-100.8,11.86-140.37,5.15-7.1,12.41-13.51,19.81-18.22.68-.21.72.95.48,1.48-.61,1.36-9.67,10.31-11.81,13.17-31.28,41.78-35.81,102.82-12.89,149.47,1.9,3.86,9.63,18.89,11.71,21.27,1.93,2.21,6.75,4.8,8.94,7.04,20.49,20.96,49.23,39.56,78.78,47.11,21.25,5.43,35.02,5.85,55.94-.43,24.03-7.22,52.38-21.36,70.74-38.25,1.32-1.22,1.99-6.84,4.92-7.99l1.5,1.99c2.7-.62.74-2.88,1.47-4.91,2.38-6.59,12.52-20.78,16.53-29.35,30.76-65.81,9.79-141.02-53.29-178.79-48.85-29.25-111.76-21.17-157.67,9.54-4.39,2.94-8.12,7.12-13.33,8.65l-.51-2c8.49-4.46,12.77-11.93,21.02-17.46,55.36-37.09,146.17-23.52,190.15,25.06Z"/>
    </g>
  </g>
</svg>