<svg width="28" height="28" viewBox="0 0 28 28" fill="none" xmlns="http://www.w3.org/2000/svg">
<path fill-rule="evenodd" clip-rule="evenodd" d="M6.125 10.5C5.64175 10.5 5.25 10.8918 5.25 11.375V25.375C5.25 25.8582 5.64175 26.25 6.125 26.25H21.875C22.3582 26.25 22.75 25.8582 22.75 25.375V11.375C22.75 10.8918 22.3582 10.5 21.875 10.5H18.375C17.8918 10.5 17.5 10.1082 17.5 9.625C17.5 9.14175 17.8918 8.75 18.375 8.75H21.875C23.3247 8.75 24.5 9.92525 24.5 11.375V25.375C24.5 26.8247 23.3247 28 21.875 28H6.125C4.67525 28 3.5 26.8247 3.5 25.375V11.375C3.5 9.92525 4.67525 8.75 6.125 8.75H9.625C10.1082 8.75 10.5 9.14175 10.5 9.625C10.5 10.1082 10.1082 10.5 9.625 10.5H6.125Z" fill="black"/>
<path fill-rule="evenodd" clip-rule="evenodd" d="M13.3813 0.256282C13.723 -0.0854272 14.277 -0.0854272 14.6187 0.256282L19.8687 5.50628C20.2104 5.84799 20.2104 6.40201 19.8687 6.74372C19.527 7.08543 18.973 7.08543 18.6313 6.74372L14.875 2.98744V18.375C14.875 18.8582 14.4832 19.25 14 19.25C13.5168 19.25 13.125 18.8582 13.125 18.375V2.98744L9.36872 6.74372C9.02701 7.08543 8.47299 7.08543 8.13128 6.74372C7.78957 6.40201 7.78957 5.84799 8.13128 5.50628L13.3813 0.256282Z" fill="black"/>
</svg>
