<svg width="27" height="27" viewBox="0 0 27 27" fill="none" xmlns="http://www.w3.org/2000/svg">
<g clip-path="url(#clip0_1829_862)">
<path d="M21.9376 0.843756C21.9376 0.378006 21.5563 -0.0101194 21.0973 0.0590681C18.2234 0.492756 16.136 3.45432 16.0348 14.3387C16.0348 14.5619 16.1232 14.776 16.2807 14.9341C16.4382 15.0923 16.6519 15.1815 16.8751 15.1824C17.8201 15.1993 18.5626 15.4018 18.5626 16.875V26.1563C18.5626 26.38 18.6515 26.5946 18.8098 26.7529C18.968 26.9111 19.1826 27 19.4064 27H21.0939C21.3177 27 21.5323 26.9111 21.6905 26.7529C21.8487 26.5946 21.9376 26.38 21.9376 26.1563V0.843756ZM7.17201 5.60603e-06C7.2839 5.60603e-06 7.39121 0.044453 7.47032 0.12357C7.54944 0.202687 7.59389 0.309992 7.59389 0.421881V9.06526C7.59255 9.12254 7.61401 9.17802 7.65357 9.21947C7.69313 9.26093 7.74754 9.28498 7.80483 9.28632C7.86211 9.28766 7.91759 9.26619 7.95904 9.22663C8.0005 9.18707 8.02455 9.13267 8.02589 9.07538L8.41908 0.401631C8.42429 0.292997 8.47127 0.190575 8.55019 0.115742C8.62911 0.0409085 8.73388 -0.000554724 8.84264 5.60603e-06H9.72351C9.83198 -0.000119416 9.93633 0.0415377 10.0149 0.116327C10.0934 0.191115 10.1402 0.293289 10.1454 0.401631L10.5386 9.07538C10.5399 9.13267 10.564 9.18707 10.6054 9.22663C10.6469 9.26619 10.7024 9.28766 10.7596 9.28632C10.8169 9.28498 10.8713 9.26093 10.9109 9.21947C10.9504 9.17802 10.9719 9.12254 10.9706 9.06526V0.421881C10.9706 0.310284 11.0148 0.203234 11.0935 0.124165C11.1723 0.0450964 11.2792 0.000451992 11.3908 5.60603e-06H11.8801C12.0916 0.000104087 12.2953 0.0795849 12.4509 0.222714C12.6065 0.365844 12.7028 0.562188 12.7205 0.772881L13.4343 9.32851C13.4853 9.93776 13.3391 10.5473 13.0173 11.0671C12.6956 11.587 12.2153 11.9897 11.6473 12.2158L11.5578 12.2529C11.2611 12.3708 11.0079 12.5772 10.8328 12.8442C10.6576 13.1111 10.569 13.4256 10.5791 13.7447L10.9183 25.3125C10.9183 25.7471 10.7456 26.1639 10.4383 26.4711C10.131 26.7784 9.71427 26.9511 9.2797 26.9511C8.84513 26.9511 8.42835 26.7784 8.12106 26.4711C7.81377 26.1639 7.64114 25.7471 7.64114 25.3125L7.98201 13.7447C7.99206 13.4256 7.90348 13.1111 7.72833 12.8442C7.55318 12.5772 7.3 12.3708 7.00326 12.2529L6.91383 12.2158C6.34551 11.9896 5.865 11.5866 5.54321 11.0664C5.22143 10.5462 5.07543 9.93634 5.12676 9.32682L5.84226 0.772881C5.86002 0.562188 5.95624 0.365844 6.11187 0.222714C6.2675 0.0795849 6.4712 0.000104087 6.68264 5.60603e-06H7.17201Z" fill="black"/>
</g>
<defs>
<clipPath id="clip0_1829_862">
<rect width="27" height="27" fill="white"/>
</clipPath>
</defs>
</svg>
