<svg width="14" height="22" viewBox="0 0 14 22" fill="none" xmlns="http://www.w3.org/2000/svg">
<path d="M14 0.687504C14 0.308004 13.6826 -0.00824543 13.3006 0.0481296C10.9087 0.401504 9.17133 2.81463 9.08706 11.6834C9.08706 11.8652 9.16066 12.0397 9.29175 12.1685C9.42284 12.2974 9.60074 12.3701 9.7865 12.3709C10.573 12.3846 11.191 12.5496 11.191 13.75V21.3125C11.191 21.4948 11.265 21.6697 11.3967 21.7986C11.5284 21.9276 11.707 22 11.8933 22H13.2977C13.484 22 13.6626 21.9276 13.7943 21.7986C13.926 21.6697 14 21.4948 14 21.3125V0.687504ZM1.71063 4.56787e-06C1.80375 4.56787e-06 1.89306 0.036221 1.95891 0.100687C2.02476 0.165152 2.06175 0.252586 2.06175 0.343754V7.3865C2.06064 7.43318 2.07851 7.47838 2.11143 7.51216C2.14435 7.54594 2.18964 7.56553 2.23732 7.56663C2.285 7.56772 2.33117 7.55023 2.36567 7.518C2.40018 7.48576 2.42019 7.44143 2.42131 7.39475L2.74855 0.327255C2.7529 0.238738 2.79199 0.155284 2.85768 0.0943082C2.92336 0.0333329 3.01056 -0.000451997 3.10108 4.56787e-06H3.83423C3.92451 -9.73019e-05 4.01136 0.0338455 4.07674 0.0947846C4.14213 0.155724 4.18102 0.238976 4.18536 0.327255L4.51261 7.39475C4.51372 7.44143 4.53374 7.48576 4.56824 7.518C4.60275 7.55023 4.64892 7.56772 4.69659 7.56663C4.74427 7.56553 4.78956 7.54594 4.82248 7.51216C4.85541 7.47838 4.87327 7.43318 4.87216 7.3865V0.343754C4.87216 0.252824 4.90896 0.165598 4.9745 0.101171C5.04005 0.0367452 5.129 0.00036829 5.22188 4.56787e-06H5.62918C5.80516 8.48115e-05 5.9747 0.064847 6.10423 0.181471C6.23376 0.298095 6.31384 0.458079 6.32862 0.629754L6.92273 7.601C6.96514 8.09743 6.84348 8.59406 6.57568 9.01765C6.30788 9.44124 5.90812 9.76936 5.43536 9.95363L5.36092 9.98388C5.11395 10.0799 4.90323 10.2481 4.75745 10.4656C4.61168 10.6831 4.53795 10.9394 4.54631 11.1994L4.82862 20.625C4.82862 20.9791 4.68494 21.3187 4.42918 21.5691C4.17342 21.8195 3.82654 21.9601 3.46485 21.9601C3.10316 21.9601 2.75628 21.8195 2.50052 21.5691C2.24476 21.3187 2.10108 20.9791 2.10108 20.625L2.38479 11.1994C2.39315 10.9394 2.31942 10.6831 2.17365 10.4656C2.02788 10.2481 1.81715 10.0799 1.57018 9.98388L1.49574 9.95363C1.02274 9.76929 0.622806 9.44096 0.354986 9.01709C0.0871661 8.59322 -0.03435 8.09628 0.00837596 7.59963L0.603883 0.629754C0.618666 0.458079 0.698749 0.298095 0.828279 0.181471C0.957809 0.064847 1.12734 8.48115e-05 1.30332 4.56787e-06H1.71063Z" fill="#A8A8A8"/>
</svg>
