<svg width="21" height="21" viewBox="0 0 21 21" fill="none" xmlns="http://www.w3.org/2000/svg">
<path d="M10.5 6.2399C8.14728 6.2399 6.23998 8.1472 6.23998 10.5C6.23998 12.8527 8.14728 14.76 10.5 14.76C12.8528 14.76 14.7601 12.8527 14.7601 10.5C14.7601 8.1472 12.8528 6.2399 10.5 6.2399ZM7.55248 10.5C7.55248 8.87207 8.87215 7.5524 10.5 7.5524C12.1279 7.5524 13.4476 8.87207 13.4476 10.5C13.4476 12.1279 12.1279 13.4475 10.5 13.4475C8.87215 13.4475 7.55248 12.1279 7.55248 10.5Z" fill="black"/>
<path d="M12.8579 1.76318C12.1649 -0.587728 8.83506 -0.587726 8.14213 1.76318L8.01895 2.1811C7.8126 2.88119 7.01296 3.21241 6.37202 2.86328L5.9894 2.65487C3.83709 1.4825 1.4825 3.83709 2.65487 5.98941L2.86328 6.37202C3.21241 7.01297 2.88119 7.8126 2.1811 8.01895L1.76318 8.14213C-0.587728 8.83506 -0.587726 12.1649 1.76318 12.8579L2.1811 12.981C2.88119 13.1874 3.21241 13.987 2.86328 14.628L2.65487 15.0106C1.48251 17.1629 3.83708 19.5175 5.9894 18.3451L6.37202 18.1367C7.01297 17.7876 7.8126 18.1188 8.01895 18.8189L8.14213 19.2368C8.83506 21.5877 12.1649 21.5877 12.8579 19.2368L12.981 18.8189C13.1874 18.1188 13.987 17.7876 14.628 18.1367L15.0106 18.3451C17.1629 19.5175 19.5175 17.1629 18.3451 15.0106L18.1367 14.628C17.7876 13.987 18.1188 13.1874 18.8189 12.981L19.2368 12.8579C21.5877 12.1649 21.5877 8.83506 19.2368 8.14213L18.8189 8.01895C18.1188 7.8126 17.7876 7.01296 18.1367 6.37202L18.3451 5.9894C19.5175 3.83708 17.1629 1.48251 15.0106 2.65488L14.628 2.86329C13.987 3.21241 13.1874 2.88119 12.981 2.1811L12.8579 1.76318ZM9.40108 2.13425C9.72403 1.03858 11.276 1.03858 11.5989 2.13425L11.7221 2.55217C12.1648 4.0543 13.8806 4.76498 15.2558 4.01589L15.6384 3.80748C16.6415 3.26108 17.7389 4.35847 17.1925 5.36158L16.9841 5.74419C16.235 7.11943 16.9457 8.83515 18.4478 9.2779L18.8657 9.40108C19.9614 9.72403 19.9614 11.276 18.8657 11.5989L18.4478 11.7221C16.9457 12.1648 16.235 13.8806 16.9841 15.2558L17.1925 15.6384C17.7389 16.6415 16.6415 17.7389 15.6384 17.1925L15.2558 16.9841C13.8806 16.235 12.1648 16.9457 11.7221 18.4478L11.5989 18.8657C11.276 19.9614 9.72403 19.9614 9.40108 18.8657L9.2779 18.4478C8.83515 16.9457 7.11943 16.235 5.74419 16.9841L5.36158 17.1925C4.35847 17.7389 3.26108 16.6415 3.80748 15.6384L4.01589 15.2558C4.76498 13.8806 4.05431 12.1648 2.55218 11.7221L2.13425 11.5989C1.03858 11.276 1.03858 9.72403 2.13425 9.40108L2.55218 9.2779C4.05431 8.83515 4.76498 7.11943 4.01589 5.74419L3.80748 5.36158C3.26108 4.35846 4.35847 3.26108 5.36158 3.80748L5.74419 4.01589C7.11943 4.76498 8.83515 4.05431 9.2779 2.55218L9.40108 2.13425Z" fill="black"/>
</svg>
