<svg width="26" height="26" viewBox="0 0 26 26" fill="none" xmlns="http://www.w3.org/2000/svg">
<path d="M4.875 4.0625C4.875 1.81884 6.69384 0 8.9375 0C11.1812 0 13 1.81884 13 4.0625C13 1.81884 14.8188 0 17.0625 0C19.3062 0 21.125 1.81884 21.125 4.0625L21.125 4.07155C21.1251 4.18507 21.1252 4.51046 21.0635 4.875H24.375C25.2725 4.875 26 5.60254 26 6.5V9.75C26 10.6475 25.2725 11.375 24.375 11.375V23.5625C24.375 24.9087 23.2837 26 21.9375 26H4.0625C2.71631 26 1.625 24.9087 1.625 23.5625L1.625 11.375C0.727539 11.375 0 10.6475 0 9.75V6.5C0 5.60254 0.727537 4.875 1.625 4.875H4.93647C4.87479 4.51046 4.87494 4.18507 4.875 4.07155C4.875 4.06836 4.875 4.06535 4.875 4.0625ZM6.61048 4.875H11.375V4.0625C11.375 2.71631 10.2837 1.625 8.9375 1.625C7.59131 1.625 6.5 2.71631 6.5 4.0625C6.5 4.20022 6.50316 4.50695 6.57293 4.76278C6.58534 4.80829 6.59821 4.84553 6.61048 4.875ZM14.625 4.875H19.3895C19.4018 4.84553 19.4147 4.80829 19.4271 4.76278C19.4968 4.50695 19.5 4.20022 19.5 4.0625C19.5 2.71631 18.4087 1.625 17.0625 1.625C15.7163 1.625 14.625 2.71631 14.625 4.0625V4.875ZM1.625 6.5V9.75H11.375V6.5H1.625ZM14.625 6.5V9.75H24.375V6.5H14.625ZM22.75 11.375H14.625V24.375H21.9375C22.3862 24.375 22.75 24.0112 22.75 23.5625V11.375ZM11.375 24.375V11.375H3.25V23.5625C3.25 24.0112 3.61377 24.375 4.0625 24.375H11.375Z" fill="black"/>
</svg>
