<svg width="22" height="20" viewBox="0 0 22 20" fill="none" xmlns="http://www.w3.org/2000/svg">
	<path d="M10.8752 3.02444L19.5753 11.7246V17.825C19.5753 19.0262 18.6015 20 17.4003 20H4.35007C3.14883 20 2.17503 19.0262 2.17503 17.825V11.7246L10.8752 3.02444Z" fill="black"/>
	<path d="M9.84985 0.424702C10.4161 -0.141569 11.3342 -0.141566 11.9005 0.424702L15.2252 3.74945L18.1253 6.64949L21.538 10.0622C21.8211 10.3453 21.8211 10.8044 21.538 11.0875C21.2548 11.3707 20.7958 11.3707 20.5127 11.0875L10.8752 1.45002L1.23767 11.0875C0.954537 11.3707 0.495485 11.3707 0.212351 11.0875C-0.0707836 10.8044 -0.0707836 10.3453 0.212351 10.0622L9.84985 0.424702Z" fill="black"/>
</svg>
