<svg width="21" height="20" viewBox="0 0 21 20" fill="none" xmlns="http://www.w3.org/2000/svg">
	<path d="M11.4899 0.424702C10.9432 -0.141566 10.0568 -0.141569 9.51005 0.424702L0.205025 10.0622C-0.0683418 10.3453 -0.0683418 10.8044 0.205025 11.0875C0.478392 11.3707 0.921608 11.3707 1.19497 11.0875L2.1 10.1502V17.825C2.1 19.0262 3.0402 20 4.2 20H16.8C17.9598 20 18.9 19.0262 18.9 17.825V10.1502L19.805 11.0875C20.0784 11.3707 20.5216 11.3707 20.795 11.0875C21.0683 10.8044 21.0683 10.3453 20.795 10.0622L17.5 6.64949V1.87472C17.5 1.47431 17.1866 1.14971 16.8 1.14971H15.4C15.0134 1.14971 14.7 1.47431 14.7 1.87472V3.74945L11.4899 0.424702ZM17.5 8.70013V17.825C17.5 18.2254 17.1866 18.55 16.8 18.55H4.2C3.8134 18.55 3.5 18.2254 3.5 17.825V8.70013L10.5 1.45002L17.5 8.70013Z" fill="black"/>
</svg>
