<svg width="22" height="20" viewBox="0 0 22 20" fill="none" xmlns="http://www.w3.org/2000/svg">
<path d="M11 3.02444L19.8 11.7246V17.825C19.8 19.0262 18.815 20 17.6 20H4.4C3.18497 20 2.2 19.0262 2.2 17.825V11.7246L11 3.02444Z" fill="#A8A8A8"/>
<path d="M9.96291 0.424702C10.5357 -0.141569 11.4643 -0.141566 12.0371 0.424702L21.7852 10.0622C22.0716 10.3453 22.0716 10.8044 21.7852 11.0875C21.4988 11.3707 21.0345 11.3707 20.7481 11.0875L11 1.45002L1.25188 11.0875C0.965494 11.3707 0.501173 11.3707 0.214788 11.0875C-0.0715961 10.8044 -0.0715961 10.3453 0.214788 10.0622L9.96291 0.424702Z" fill="#A8A8A8"/>
</svg>
