<svg width="9" height="14" viewBox="0 0 9 14" fill="none" xmlns="http://www.w3.org/2000/svg">
<g clip-path="url(#clip0_2063_2117)">
<path d="M4.11857 0.209748C6.0252 0.0442415 7.85299 1.18781 8.6197 3.01784C9.61544 5.39405 8.48077 8.15486 7.23872 10.1756C6.47201 11.424 5.53409 12.5896 4.51431 13.6158C3.88878 13.0475 3.33008 12.3863 2.81494 11.7085C1.21544 9.60107 -0.548515 6.44304 0.162624 3.65307C0.638719 1.786 2.28102 0.36895 4.11857 0.209748ZM4.11782 2.29513C3.26325 2.39601 2.4635 3.10296 2.14811 3.92655C1.29354 6.15617 3.47952 8.34952 5.55887 7.34939C8.13008 6.11282 7.13209 1.9389 4.11782 2.29513Z" fill="black"/>
</g>
<defs>
<clipPath id="clip0_2063_2117">
<rect width="9" height="13.4218" fill="white" transform="translate(0 0.194305)"/>
</clipPath>
</defs>
</svg>
