<svg width="17" height="28" viewBox="0 0 17 28" fill="none" xmlns="http://www.w3.org/2000/svg">
<path d="M0.5 19.2149C0.777156 22.3407 3.33677 24.5574 7.23326 24.8445V27.125H9.18965V24.8445C13.4448 24.5096 16.0859 22.1493 16.0859 18.6567C16.0859 15.6745 14.3089 13.9522 10.5428 12.9793L9.18965 12.6285V5.49985C11.2928 5.70717 12.7112 6.83946 13.0698 8.52992H15.8251C15.5153 5.53174 12.9394 3.3788 9.18965 3.13958V0.875H7.23326V3.18742C3.59762 3.61801 1.10322 5.94638 1.10322 9.10404C1.10322 11.8311 2.91289 13.7608 6.09203 14.5741L7.23326 14.8771V22.4364C5.08122 22.1174 3.59762 20.9373 3.23895 19.2149H0.5ZM6.85828 12.0225C4.90189 11.5281 3.85848 10.4755 3.85848 8.9924C3.85848 7.2222 5.17904 5.91449 7.23326 5.56364V12.1182L6.85828 12.0225ZM9.84178 15.531C12.2547 16.137 13.3144 17.1417 13.3144 18.8481C13.3144 20.9054 11.7656 22.2769 9.18965 22.4842V15.3715L9.84178 15.531Z" fill="black"/>
</svg>
