<svg width="31" height="31" viewBox="0 0 31 31" fill="none" xmlns="http://www.w3.org/2000/svg">
	<path d="M22.2812 25.1875C22.8163 25.1875 23.25 24.7538 23.25 24.2187L23.25 6.78125C23.25 6.24622 22.8163 5.8125 22.2812 5.8125L8.71875 5.8125C8.18372 5.8125 7.75 6.24623 7.75 6.78125L7.75 24.2188C7.75 24.7538 8.18372 25.1875 8.71875 25.1875L22.2812 25.1875Z" fill="black"/>
	<path d="M24.2188 29.0625C23.1487 29.0625 22.2813 29.9299 22.2813 31L20.3438 31C20.3438 29.9299 19.4763 29.0625 18.4063 29.0625C17.3362 29.0625 16.4688 29.9299 16.4688 31L14.5313 31C14.5313 29.9299 13.6638 29.0625 12.5938 29.0625C11.5237 29.0625 10.6563 29.9299 10.6563 31L8.71875 31C8.71875 29.9299 7.8513 29.0625 6.78125 29.0625C5.7112 29.0625 4.84375 29.93 4.84375 31L1.9375 31L1.9375 29.0625C3.00755 29.0625 3.875 28.1951 3.875 27.125C3.875 26.055 3.00755 25.1875 1.9375 25.1875L1.9375 23.25C3.00755 23.25 3.875 22.3826 3.875 21.3125C3.875 20.2425 3.00755 19.375 1.9375 19.375L1.9375 17.4375C3.00755 17.4375 3.875 16.5701 3.875 15.5C3.875 14.4299 3.00755 13.5625 1.9375 13.5625L1.9375 11.625C3.00755 11.625 3.875 10.7576 3.875 9.6875C3.875 8.61745 3.00755 7.75 1.9375 7.75L1.9375 5.8125C3.00755 5.8125 3.875 4.94505 3.875 3.875C3.875 2.80495 3.00755 1.9375 1.9375 1.9375L1.9375 4.63994e-07L4.84375 2.09922e-07C4.84375 1.07005 5.7112 1.9375 6.78125 1.9375C7.8513 1.9375 8.71875 1.07005 8.71875 -1.28842e-07L10.6562 -2.98223e-07C10.6562 1.07005 11.5237 1.9375 12.5937 1.9375C13.6638 1.9375 14.5312 1.07005 14.5312 -6.36986e-07L16.4687 -8.06368e-07C16.4687 1.07005 17.3362 1.9375 18.4062 1.9375C19.4763 1.9375 20.3437 1.07005 20.3437 -1.14513e-06L22.2812 -1.31451e-06C22.2812 1.07005 23.1487 1.9375 24.2187 1.9375C25.2888 1.9375 26.1562 1.07005 26.1562 -1.65328e-06L29.0625 -1.90735e-06L29.0625 1.9375C27.9924 1.9375 27.125 2.80495 27.125 3.875C27.125 4.94505 27.9924 5.8125 29.0625 5.8125L29.0625 7.75C27.9924 7.75 27.125 8.61745 27.125 9.6875C27.125 10.7576 27.9924 11.625 29.0625 11.625L29.0625 13.5625C27.9924 13.5625 27.125 14.4299 27.125 15.5C27.125 16.5701 27.9924 17.4375 29.0625 17.4375L29.0625 19.375C27.9924 19.375 27.125 20.2424 27.125 21.3125C27.125 22.3826 27.9924 23.25 29.0625 23.25L29.0625 25.1875C27.9924 25.1875 27.125 26.0549 27.125 27.125C27.125 28.1951 27.9924 29.0625 29.0625 29.0625L29.0625 31L26.1563 31C26.1563 29.9299 25.2888 29.0625 24.2188 29.0625ZM25.1875 25.1875L25.1875 5.8125C25.1875 4.74245 24.32 3.875 23.25 3.875L7.75 3.875C6.67995 3.875 5.8125 4.74245 5.8125 5.8125L5.8125 25.1875C5.8125 26.2576 6.67995 27.125 7.75 27.125L23.25 27.125C24.3201 27.125 25.1875 26.2576 25.1875 25.1875Z" fill="black"/>
</svg>
