<svg width="22" height="20" viewBox="0 0 22 20" fill="none" xmlns="http://www.w3.org/2000/svg">
	<path d="M3.81942 19.1343C3.71569 19.7256 4.29911 20.1884 4.81437 19.9236L10.6667 16.9157L16.519 19.9236C17.0342 20.1884 17.6176 19.7256 17.5139 19.1343L16.4076 12.8284L21.104 8.35283C21.543 7.93457 21.3158 7.16982 20.7278 7.08629L14.1965 6.15846L11.2843 0.38974C11.022 -0.129913 10.3114 -0.129913 10.049 0.38974L7.13686 6.15846L0.605563 7.08629C0.0175769 7.16982 -0.209623 7.93457 0.229284 8.35283L4.92573 12.8284L3.81942 19.1343ZM10.3589 15.4435L5.44456 17.9693L6.37023 12.6929C6.41387 12.4442 6.33182 12.1895 6.15324 12.0193L2.27745 8.32587L7.68052 7.55831C7.90388 7.52658 8.09891 7.38393 8.20427 7.17521L10.6667 2.29743L13.1291 7.17521C13.2344 7.38393 13.4294 7.52658 13.6528 7.55831L19.0559 8.32587L15.1801 12.0193C15.0015 12.1895 14.9195 12.4442 14.9631 12.6929L15.8888 17.9693L10.9744 15.4435C10.7803 15.3437 10.553 15.3437 10.3589 15.4435Z" fill="black"/>
</svg>
